<?xml version="1.0" standalone="no"?>
<!DOCTYPE svg PUBLIC "-//W3C//DTD SVG 20010904//EN"
 "http://www.w3.org/TR/2001/REC-SVG-20010904/DTD/svg10.dtd">
<svg version="1.0" xmlns="http://www.w3.org/2000/svg"
 width="225.000000pt" height="225.000000pt" viewBox="0 0 225.000000 225.000000"
 preserveAspectRatio="xMidYMid meet">

<g transform="translate(0.000000,225.000000) scale(0.100000,-0.100000)"
fill="#000000" stroke="none">
<path d="M0 1125 l0 -1125 1029 2 c996 3 1030 4 1050 22 12 11 21 16 21 12 0
-4 9 -2 20 4 19 10 20 9 14 -14 -6 -26 -6 -26 55 -26 l61 0 0 1125 0 1125
-1125 0 -1125 0 0 -1125z m1224 743 c81 -29 165 -109 208 -196 30 -61 33 -74
33 -162 0 -82 -4 -103 -27 -152 -15 -32 -47 -79 -72 -106 -25 -27 -46 -51 -46
-54 0 -3 18 -8 39 -11 155 -20 302 -174 332 -346 31 -176 -70 -364 -240 -445
l-66 -31 -397 -3 -398 -3 0 765 c0 592 3 765 12 768 7 3 136 3 288 1 249 -4
280 -6 334 -25z m956 -1812 c0 -3 -4 -8 -10 -11 -5 -3 -10 -1 -10 4 0 6 5 11
10 11 6 0 10 -2 10 -4z"/>
</g>
</svg>
