<?xml version="1.0" standalone="no"?>
<!DOCTYPE svg PUBLIC "-//W3C//DTD SVG 20010904//EN"
 "http://www.w3.org/TR/2001/REC-SVG-20010904/DTD/svg10.dtd">
<svg version="1.0" xmlns="http://www.w3.org/2000/svg"
 width="2560.000000pt" height="1340.000000pt" viewBox="0 0 2560.000000 1340.000000"
 preserveAspectRatio="xMidYMid meet">

<g transform="translate(0.000000,1340.000000) scale(0.100000,-0.100000)"
fill="#000000" stroke="none">
<path d="M21320 11909 c-829 -61 -1542 -293 -2150 -699 -780 -522 -1344 -1334
-1565 -2255 -79 -326 -100 -519 -100 -895 0 -310 6 -396 46 -635 196 -1176
934 -2153 2045 -2709 460 -230 924 -365 1495 -433 203 -25 796 -24 1024 0 785
85 1468 292 2076 629 l147 81 6 46 c11 94 96 1293 91 1299 -1 1 -29 -46 -61
-105 -270 -493 -666 -921 -1089 -1178 -182 -110 -395 -205 -594 -264 -623
-185 -1466 -152 -2108 84 -151 56 -445 205 -578 293 -451 300 -782 684 -1040
1207 -224 454 -349 928 -396 1500 -17 207 -6 668 21 865 100 747 382 1381 820
1845 474 502 1075 801 1820 904 908 126 1695 -69 2330 -580 296 -238 551 -553
760 -940 l61 -114 -5 105 c-8 139 -75 1152 -84 1259 l-7 85 -140 58 c-780 326
-1449 500 -2100 548 -159 11 -567 11 -725 -1z"/>
<path d="M3638 11767 c27 -30 64 -81 81 -115 64 -126 61 -49 61 -1599 l0
-1413 -22 -5 c-13 -2 -99 -21 -193 -41 -749 -157 -1479 -402 -1974 -660 -240
-126 -465 -268 -454 -288 5 -8 63 -93 80 -115 1 -2 78 34 170 82 562 286 1315
505 2193 637 74 11 150 22 168 25 l32 6 0 -1782 c0 -1977 5 -1834 -67 -1971
-19 -37 -57 -90 -83 -117 l-49 -51 700 0 701 0 -57 62 c-31 34 -69 90 -85 123
-64 131 -60 1 -60 2006 l0 1826 88 7 c474 35 1365 33 2017 -4 552 -32 1316
-116 1753 -191 l62 -11 0 -1727 c0 -1912 4 -1789 -66 -1922 -20 -37 -58 -91
-84 -118 l-49 -51 696 0 695 0 -51 56 c-57 62 -113 172 -130 252 -8 37 -11
539 -11 1683 0 1548 1 1630 18 1625 9 -3 109 -28 221 -56 395 -99 825 -231
1160 -356 79 -30 147 -51 152 -48 5 3 9 183 9 404 l0 398 -92 31 c-310 102
-770 217 -1198 300 -1531 297 -3350 359 -5007 171 -95 -11 -175 -20 -178 -20
-3 0 -5 597 -5 1328 0 1471 -3 1391 67 1524 20 38 57 91 82 118 l47 50 -694 0
-695 0 51 -53z"/>
<path d="M8558 11767 c50 -53 97 -135 123 -212 11 -32 15 -273 19 -1245 l5
-1204 260 -32 c143 -18 364 -49 490 -68 127 -20 234 -36 238 -36 3 0 8 575 9
1278 l3 1277 27 69 c30 77 86 164 130 201 l30 25 -693 0 -692 0 51 -53z"/>
<path d="M12469 11755 c63 -68 88 -109 125 -205 l21 -55 3 -3378 c2 -3721 7
-3438 -59 -3570 -19 -37 -57 -87 -95 -124 l-64 -63 2140 0 c1177 0 2140 1
2140 3 0 3 176 885 185 927 5 22 1 19 -27 -15 -18 -22 -70 -79 -117 -128 -208
-214 -433 -309 -840 -352 -181 -20 -870 -38 -1146 -30 -355 10 -883 39 -1087
61 l-58 7 0 1738 0 1739 963 -2 962 -3 57 -28 c31 -15 91 -60 133 -98 l75 -71
0 397 0 397 -70 -66 c-39 -36 -98 -80 -133 -98 l-62 -33 -962 -3 -963 -2 0
1371 0 1371 433 -7 c237 -4 722 -11 1077 -15 709 -10 744 -13 922 -74 123 -42
224 -100 326 -187 l82 -70 -5 58 c-3 32 -8 196 -11 366 l-6 307 -2000 0 -2000
0 61 -65z"/>
<path d="M17701 3045 c-269 -51 -428 -267 -391 -533 20 -142 91 -243 211 -299
78 -37 120 -47 295 -73 75 -11 156 -29 179 -39 56 -25 88 -71 93 -136 12 -144
-82 -215 -282 -215 -140 0 -247 31 -335 97 l-33 26 -97 -97 -96 -97 45 -40
c60 -52 159 -103 255 -131 70 -20 102 -23 250 -22 158 0 176 2 251 27 194 65
308 191 333 372 24 169 -33 337 -142 417 -80 58 -166 84 -381 113 -122 17
-205 49 -231 89 -61 93 -23 216 82 267 40 20 63 23 143 23 113 0 187 -20 258
-68 l50 -33 94 94 93 94 -40 35 c-51 44 -162 99 -240 119 -86 23 -273 28 -364
10z"/>
<path d="M10000 2271 l0 -781 150 0 150 0 0 295 0 295 190 0 c104 0 213 5 242
11 127 27 256 116 315 217 59 100 82 273 53 384 -45 164 -178 293 -350 339
-29 7 -174 13 -397 16 l-353 5 0 -781z m666 494 c54 -16 115 -70 133 -118 17
-44 13 -137 -8 -183 -21 -45 -67 -85 -120 -103 -20 -6 -103 -11 -202 -11
l-169 0 0 215 0 215 158 0 c110 0 173 -4 208 -15z"/>
<path d="M12316 3042 c-4 -6 -403 -1101 -527 -1444 l-38 -108 157 0 158 0 45
138 45 137 279 0 279 0 45 -137 45 -138 158 0 c87 0 158 1 158 3 0 1 -128 351
-284 777 l-283 775 -116 3 c-63 1 -118 -1 -121 -6z m223 -735 c50 -148 91
-273 91 -278 0 -5 -80 -9 -190 -9 -110 0 -190 4 -190 9 0 9 152 453 180 525 6
16 12 27 14 25 2 -2 45 -125 95 -272z"/>
<path d="M13970 2271 l0 -781 150 0 150 0 0 310 0 310 113 0 113 0 151 -310
152 -310 176 0 177 0 -20 33 c-10 17 -77 145 -147 282 -70 138 -141 273 -157
302 l-29 52 52 26 c28 15 74 48 101 73 92 86 129 175 129 312 0 225 -119 384
-341 455 -47 16 -106 19 -412 23 l-358 4 0 -781z m703 480 c67 -33 100 -85
105 -167 7 -112 -52 -190 -163 -214 -27 -6 -115 -9 -195 -8 l-145 3 -3 195
c-1 107 0 201 3 208 4 11 39 13 178 10 157 -3 176 -5 220 -27z"/>
<path d="M16060 2270 l0 -780 150 0 150 0 0 780 0 780 -150 0 -150 0 0 -780z"/>
</g>
</svg>
