<?xml version="1.0" encoding="utf-8"?>
<!-- Generator: Adobe Illustrator 19.2.1, SVG Export Plug-In . SVG Version: 6.00 Build 0)  -->
<svg version="1.1" id="layer" xmlns="http://www.w3.org/2000/svg" xmlns:xlink="http://www.w3.org/1999/xlink" x="0px" y="0px"
	 viewBox="0 0 652 652" style="enable-background:new 0 0 652 652;" xml:space="preserve">
<style type="text/css">
	.st0{fill:#E63312;}
</style>
<g id="Calque_2">
	<g id="Calque_1-2">
		<path id="path4603" class="st0" d="M141.8,254.5c8.8-5.4,17-11.9,24.2-19.2c5.9-6-20.2-3.3-26.4,2.1c-7.2,6-13.9,12.5-20,19.6
			C115.8,261.2,133.6,259.3,141.8,254.5z M618.7,389.8c4.6,2.8,4.4-11.7-4.9-17.5c-33.4-20.8-124.9,15.5-159.5,19.6
			c-6.5,0.8-8.9-0.9-7.3-5.3c2.9-8.5,14.5-24.1,16.9-29.5c2.4-5.4,1.9-22.8-24.2-22.8c-21.4,0-41,9.9-54.7,22.4
			c-13.1,11.2-38.6,33.3-54.2,33.3c-16.2,0,31.2-48.9,33.9-51.4c7-6.6-15.2-5-24.5,2.1c-3.7,2.8-18.7,18.8-28,34.3
			c-27,18.7-53.9,23-41.1,7.5c6.8-8.3,18.3-19.3,26.2-28.1c11-12.2,9-20.3-15.3-20.3c-32.6,0-36,2.8-54.5,24.4
			c-3.4,4-1.7,14.1,1.9,10.6c22.1-21.8,21.6-20.1,50.8-20.1c-4.7,5-13.1,10-27.3,28c-12.7,16.1-4.4,29.1,13.6,29.1
			c10,0,24.8-4.7,38.4-14.2c-1.6,8.5,1.7,14.4,14.5,14.4c14.8,0,31.8-8.8,45.8-18.6c-1.8,10.6,3.7,18.6,19.4,18.6
			c12.1,0,26.1-4.7,40.7-17.3c0,9.6,6.7,17.3,19.4,17.3C475.4,406.1,581.8,367.5,618.7,389.8z M392.8,392.3
			c-20.2,0,20.2-46.2,46.6-46.2c15.9-0.1-27,46.2-46.5,46.2H392.8z M376.7,320.9c11.2-7.2,21.7-15.4,31.3-24.6
			c5.9-6-20.2-3.3-26.4,2.1c-8.6,7.3-16.8,15.2-24.3,23.6c-3.7,4.2,11.4,3.8,19.6-1.1L376.7,320.9z M217.4,370.1
			c-7.9,7.7-25.2,20.7-40.4,20.7c-11.2,0,11.1-20,22.1-36.2c10.6-15.5,1.9-20.1-6.8-20.1c-21.6,0-42.6,15.1-56.9,25.8
			c4.2-5.8,11-13.2,18.2-22.6c4-5.3-19.8-3.4-25.9,4.6c-1.9,2.5-4.1,5.4-6.4,8.5c-20.6,24.7-51.8,41.4-67.1,41.4
			c-8.5,0-11.6-5.9-6.4-16.9c12.7-26.7,56.8-77.5,80.8-99.8c10.9-10.2-21.8-6-29.3,1.5c-33.1,33.4-66.5,70.6-75.9,99.6
			c-5.2,16-0.4,30.4,19.5,30.4c16.3,0,34.5-8.1,49.9-17.7l-10,13.6c-4.3,5.9,17.7,3.7,22.3-2.1c17.4-22.3,59.3-49.7,70.9-49.7
			c10.6,0-25.9,27.4-25.6,44.1c0.4,22,51.4,8.5,68.7-14.1C222,377.5,219.9,367.7,217.4,370.1z"/>
	</g>
</g>
</svg>
