<?xml version="1.0" encoding="UTF-8"?>
<svg version="1.1" xmlns="http://www.w3.org/2000/svg" width="225" height="225">
<path d="M0 0 C74.25 0 148.5 0 225 0 C225 74.25 225 148.5 225 225 C150.75 225 76.5 225 0 225 C0 150.75 0 76.5 0 0 Z " fill="#00694C" transform="translate(0,0)"/>
<path d="M0 0 C0.33 0 0.66 0 1 0 C1 34.98 1 69.96 1 106 C-33.98 106 -68.96 106 -105 106 C-105 105.67 -105 105.34 -105 105 C-104.01902344 104.90203125 -103.03804688 104.8040625 -102.02734375 104.703125 C-74.94421187 101.79773276 -52.70548159 91.85610738 -33 73 C-32.31421875 72.37738281 -31.6284375 71.75476563 -30.921875 71.11328125 C-11.56667655 52.93920711 -1.90208089 25.87831108 0 0 Z " fill="#FCFDFD" transform="translate(224,119)"/>
<path d="M0 0 C34.98 0 69.96 0 106 0 C106 34.98 106 69.96 106 106 C105.67 106 105.34 106 105 106 C104.90203125 105.01902344 104.8040625 104.03804688 104.703125 103.02734375 C101.7320955 75.35768605 91.33108356 52.80546598 72 33 C71.11054688 32.01773438 71.11054688 32.01773438 70.203125 31.015625 C57.13260031 16.90981122 38.19967111 8.91991109 20 4 C19.13632813 3.76539063 18.27265625 3.53078125 17.3828125 3.2890625 C11.66113345 1.88409505 5.86633242 1.41667408 0 1 C0 0.67 0 0.34 0 0 Z " fill="#FCFDFD" transform="translate(119,0)"/>
<path d="M0 0 C34.98 0 69.96 0 106 0 C106 0.33 106 0.66 106 1 C105.01902344 1.09796875 104.03804688 1.1959375 103.02734375 1.296875 C75.94421187 4.20226724 53.70548159 14.14389262 34 33 C32.97132812 33.93392578 32.97132812 33.93392578 31.921875 34.88671875 C12.56667655 53.06079289 2.90208089 80.12168892 1 106 C0.67 106 0.34 106 0 106 C0 71.02 0 36.04 0 0 Z " fill="#FCFDFD" transform="translate(0,0)"/>
<path d="M0 0 C0.33 0 0.66 0 1 0 C1.10957031 1.01578125 1.21914063 2.0315625 1.33203125 3.078125 C4.42898966 30.58462433 14.70177576 53.2281997 34 73 C34.59296875 73.65484375 35.1859375 74.3096875 35.796875 74.984375 C53.24249852 93.81183009 79.39235241 101.95498928 104 105 C104 105.33 104 105.66 104 106 C69.68 106 35.36 106 0 106 C0 71.02 0 36.04 0 0 Z " fill="#FDFDFD" transform="translate(0,119)"/>
<path d="M0 0 C9.80546348 -0.09277329 19.61082215 -0.16380217 29.41663551 -0.20724869 C33.97013502 -0.22810333 38.52333374 -0.25638193 43.07666016 -0.30175781 C47.47277143 -0.34529168 51.86859379 -0.36915308 56.26490402 -0.37950897 C57.94022544 -0.38688684 59.61553145 -0.40129429 61.29072952 -0.42292023 C63.64159276 -0.45205544 65.99126976 -0.45595193 68.34228516 -0.45410156 C69.37591187 -0.47567322 69.37591187 -0.47567322 70.43041992 -0.49768066 C76.37960242 -0.44717685 79.8872907 1.8872907 84 6 C84.78375 5.195625 85.5675 4.39125 86.375 3.5625 C90.30307681 -0.27205117 92.87172195 -0.14066728 98.11181641 -0.11352539 C99.20953117 -0.11374443 99.20953117 -0.11374443 100.329422 -0.1139679 C102.75349876 -0.11327003 105.17749912 -0.10548354 107.6015625 -0.09765625 C109.28022215 -0.09579162 110.95888234 -0.09436793 112.63754272 -0.09336853 C117.05987038 -0.08954688 121.48216528 -0.07971959 125.90447998 -0.06866455 C130.41548215 -0.05844286 134.92648959 -0.05386928 139.4375 -0.04882812 C148.29168107 -0.03809702 157.14583781 -0.02102481 166 0 C166 0.66 166 1.32 166 2 C165.08402542 2.00586624 164.16805084 2.01173248 163.22431946 2.01777649 C154.58732812 2.07570739 145.95059528 2.14778648 137.31385517 2.23571491 C132.87372468 2.28042084 128.433686 2.31967643 123.9934082 2.34643555 C119.70736639 2.37246639 115.42167779 2.41286708 111.13585472 2.46318626 C109.50166407 2.47985649 107.86741232 2.49136982 106.23314857 2.49761391 C103.94192196 2.50725352 101.6515993 2.5353096 99.3605957 2.56762695 C97.40534721 2.58428154 97.40534721 2.58428154 95.41059875 2.60127258 C91.76127907 3.02790847 89.88353978 3.76066158 87 6 C85.17370206 9.06680799 85.17370206 9.06680799 84 12 C83.34 12 82.68 12 82 12 C81.34895833 10.2421875 80.69791667 8.484375 80.046875 6.7265625 C78.63019744 4.39010175 77.56393487 3.97706248 75 3 C72.51777405 2.79231711 70.14386805 2.68895986 67.66113281 2.68115234 C66.92903091 2.67110672 66.19692902 2.6610611 65.44264221 2.65071106 C63.02947759 2.6198887 60.61642387 2.60284676 58.203125 2.5859375 C56.52731371 2.56722507 54.85151182 2.5476516 53.17572021 2.5272522 C48.76993358 2.47593285 44.3641164 2.4363061 39.95819092 2.39910889 C35.46033167 2.359068 30.96259948 2.30797604 26.46484375 2.2578125 C17.64331842 2.16105557 8.82172135 2.07665003 0 2 C0 1.34 0 0.68 0 0 Z " fill="#D0DED9" transform="translate(29,136)"/>
<path d="M0 0 C2.70942393 -0.10861833 5.414439 -0.18758577 8.125 -0.25 C8.88554687 -0.28351563 9.64609375 -0.31703125 10.4296875 -0.3515625 C15.79650024 -0.44409375 18.73710835 0.4497303 23 4 C25.76623223 7.27580133 26.90401834 9.2321467 27.4375 13.5 C26.78789373 18.69685013 25.33657798 21.79381987 21.4375 25.3125 C17.06104812 28.3423513 13.55767937 28.11718736 8.375 28.0625 C7.57320312 28.05798828 6.77140625 28.05347656 5.9453125 28.04882812 C3.96350994 28.03703168 1.98174567 28.01909605 0 28 C0 27.34 0 26.68 0 26 C1.32 26 2.64 26 4 26 C4 17.75 4 9.5 4 1 C2.68 0.67 1.36 0.34 0 0 Z M8 1 C8 9.25 8 17.5 8 26 C16.38133736 26.94750943 16.38133736 26.94750943 19.53125 23.9375 C21.30188372 20.39623256 21.53405864 17.95080215 21.5 14 C21.5103125 12.80375 21.520625 11.6075 21.53125 10.375 C20.88432604 6.26513015 20.19519887 4.68238918 17 2 C14.03 1.67 11.06 1.34 8 1 Z " fill="#E1EAE7" transform="translate(169,92)"/>
<path d="M0 0 C3.18789279 -0.65059037 5.83234017 -0.82217922 9 0 C11.9975597 2.94527668 13.9554448 6.35052193 16 10 C16.43570313 10.73347656 16.87140625 11.46695313 17.3203125 12.22265625 C18.24492753 13.79708813 19.12812962 15.39575851 20 17 C20.33 11.72 20.66 6.44 21 1 C19.68 0.67 18.36 0.34 17 0 C20.3 0 23.6 0 27 0 C25.68 0.33 24.36 0.66 23 1 C23 9.91 23 18.82 23 28 C19.48049217 26.82683072 19.19890887 26.15515493 17.37109375 23.0703125 C16.89349609 22.27496094 16.41589844 21.47960937 15.92382812 20.66015625 C15.1880957 19.40525391 15.1880957 19.40525391 14.4375 18.125 C13.45733296 16.48159085 12.4768758 14.83835469 11.49609375 13.1953125 C11.06482178 12.46328613 10.6335498 11.73125977 10.18920898 10.97705078 C9.17357961 9.28857477 8.09297819 7.63946728 7 6 C6.67 12.6 6.34 19.2 6 26 C7.32 26 8.64 26 10 26 C10 26.66 10 27.32 10 28 C6.7 28 3.4 28 0 28 C0 27.34 0 26.68 0 26 C1.32 26 2.64 26 4 26 C4 17.75 4 9.5 4 1 C2.68 0.67 1.36 0.34 0 0 Z " fill="#E3ECE9" transform="translate(48,92)"/>
<path d="M0 0 C2.76436187 2.38764933 3.82081226 4.61774162 5.04296875 8.03515625 C5.39423828 9.00904297 5.74550781 9.98292969 6.10742188 10.98632812 C6.64206055 12.5090332 6.64206055 12.5090332 7.1875 14.0625 C7.55552734 15.08150391 7.92355469 16.10050781 8.30273438 17.15039062 C11 24.70173353 11 24.70173353 11 27 C12.32 27 13.64 27 15 27 C15 27.66 15 28.32 15 29 C11.04 29 7.08 29 3 29 C3 28.34 3 27.68 3 27 C3.99 27 4.98 27 6 27 C5.67 26.236875 5.34 25.47375 5 24.6875 C4 22 4 22 4 19 C0.7 19 -2.6 19 -6 19 C-6.144375 19.94875 -6.28875 20.8975 -6.4375 21.875 C-7 25 -7 25 -8 27 C-6.68 27 -5.36 27 -4 27 C-4 27.66 -4 28.32 -4 29 C-6.97 29 -9.94 29 -13 29 C-13 28.34 -13 27.68 -13 27 C-12.01 26.67 -11.02 26.34 -10 26 C-8.75287712 23.52769217 -8.75287712 23.52769217 -7.7734375 20.46875 C-7.3815625 19.34855469 -6.9896875 18.22835937 -6.5859375 17.07421875 C-6.18632812 15.89472656 -5.78671875 14.71523437 -5.375 13.5 C-4.57250658 11.17632444 -3.7679329 8.8533659 -2.9609375 6.53125 C-2.60821777 5.49548828 -2.25549805 4.45972656 -1.89208984 3.39257812 C-1 1 -1 1 0 0 Z " fill="#E8EFED" transform="translate(149,91)"/>
<path d="M0 0 C7.26 0 14.52 0 22 0 C22 2.31 22 4.62 22 7 C21.34 6.195625 20.68 5.39125 20 4.5625 C16.12020772 1.24851076 13.99985175 1.25422975 9 1 C9 4.96 9 8.92 9 13 C10.98 12.67 12.96 12.34 15 12 C15.33 10.68 15.66 9.36 16 8 C16.33 8 16.66 8 17 8 C17 11.63 17 15.26 17 19 C16.01 17.68 15.02 16.36 14 15 C12.35 14.67 10.7 14.34 9 14 C9 17.96 9 21.92 9 26 C14.07294603 25.89075822 14.07294603 25.89075822 19 25 C21.23886732 22.11320156 21.23886732 22.11320156 22 19 C22.33 19 22.66 19 23 19 C23 21.97 23 24.94 23 28 C15.41 28 7.82 28 0 28 C0 27.34 0 26.68 0 26 C1.32 26 2.64 26 4 26 C4 17.75 4 9.5 4 1 C2.68 0.67 1.36 0.34 0 0 Z " fill="#FAFCFB" transform="translate(107,92)"/>
<path d="M0 0 C0 2.31 0 4.62 0 7 C-0.66 7 -1.32 7 -2 7 C-2.391875 6.175 -2.78375 5.35 -3.1875 4.5 C-3.785625 3.675 -4.38375 2.85 -5 2 C-8.62599422 1.58274322 -8.62599422 1.58274322 -12 2 C-12.33 3.65 -12.66 5.3 -13 7 C-12.40832031 7.25394531 -11.81664063 7.50789063 -11.20703125 7.76953125 C0.41605839 12.83211679 0.41605839 12.83211679 2 16 C2.48809142 20.31147425 2.50255798 22.29946463 -0.0625 25.875 C-4.68379514 29.21806457 -8.38032276 29.17996414 -13.9375 28.5625 C-14.948125 28.376875 -15.95875 28.19125 -17 28 C-17 25.03 -17 22.06 -17 19 C-14.22017379 20.3899131 -14.12536659 22.18658353 -13 25 C-9.95699684 26.52150158 -7.345915 26.23899393 -4 26 C-1.8480563 22.77208445 -1.79913557 21.71599191 -2 18 C-2.59167969 17.82984375 -3.18335937 17.6596875 -3.79296875 17.484375 C-8.54288386 16.02763105 -12.55888063 14.76372431 -16 11 C-17.0625 8.0625 -17.0625 8.0625 -17 5 C-12.48953447 -1.99899823 -7.68824673 -1.80899923 0 0 Z " fill="#EFF4F2" transform="translate(98,92)"/>
<path d="M0 0 C4.29 0 8.58 0 13 0 C11.68 0.33 10.36 0.66 9 1 C9 9.25 9 17.5 9 26 C10.32 26 11.64 26 13 26 C13 26.66 13 27.32 13 28 C8.71 28 4.42 28 0 28 C0 27.34 0 26.68 0 26 C1.32 26 2.64 26 4 26 C4 17.75 4 9.5 4 1 C2.68 0.67 1.36 0.34 0 0 Z " fill="#E5EDEA" transform="translate(29,92)"/>
<path d="M0 0 C4.95 0 9.9 0 15 0 C15 0.33 15 0.66 15 1 C12.69 1 10.38 1 8 1 C8 9.58 8 18.16 8 27 C6.68 27 5.36 27 4 27 C4 18.42 4 9.84 4 1 C2.68 0.67 1.36 0.34 0 0 Z " fill="#FFFFFF" transform="translate(169,92)"/>
<path d="M0 0 C0.33 0 0.66 0 1 0 C1 8.58 1 17.16 1 26 C8.11189792 25.4855858 8.11189792 25.4855858 15 24 C17.01858062 21.049825 17.01858062 21.049825 18 18 C18.33 18 18.66 18 19 18 C19 20.97 19 23.94 19 27 C11.41 27 3.82 27 -4 27 C-4 26.34 -4 25.68 -4 25 C-2.68 25 -1.36 25 0 25 C0 16.75 0 8.5 0 0 Z " fill="#B4CCC4" transform="translate(111,93)"/>
<path d="M0 0 C3.3 0 6.6 0 10 0 C8.68 0.33 7.36 0.66 6 1 C6 9.91 6 18.82 6 28 C5.67 28 5.34 28 5 28 C4.65820312 24.97265625 4.65820312 24.97265625 4.31640625 21.9453125 C4.08707039 19.92595684 4.08707039 19.92595684 3 18 C3.08938418 15.11087268 3.234048 12.25606745 3.4375 9.375 C3.48970703 8.57320312 3.54191406 7.77140625 3.59570312 6.9453125 C3.72548371 4.96320897 3.86209735 2.98155501 4 1 C2.68 0.67 1.36 0.34 0 0 Z " fill="#D2E0DB" transform="translate(65,92)"/>
<path d="M0 0 C0.99 0.33 1.98 0.66 3 1 C2.236875 1.53625 1.47375 2.0725 0.6875 2.625 C-2.22864474 5.20205814 -3.4705622 7.45814404 -5 11 C-5.66 11 -6.32 11 -7 11 C-7.61875 9.3603125 -7.61875 9.3603125 -8.25 7.6875 C-9.60285591 4.48984058 -10.94055844 2.79346574 -14 1 C-8.46153846 1.61538462 -8.46153846 1.61538462 -6.125 3.5625 C-5.568125 4.2740625 -5.568125 4.2740625 -5 5 C-3.35 3.35 -1.7 1.7 0 0 Z " fill="#DAE5E1" transform="translate(118,137)"/>
<path d="M0 0 C0.66 0 1.32 0 2 0 C2.99 2.97 3.98 5.94 5 9 C2.36 9 -0.28 9 -3 9 C-2.01 6.03 -1.02 3.06 0 0 Z " fill="#197155" transform="translate(147,100)"/>
<path d="M0 0 C0 2.31 0 4.62 0 7 C-0.66 7 -1.32 7 -2 7 C-2.391875 6.175 -2.78375 5.35 -3.1875 4.5 C-3.785625 3.675 -4.38375 2.85 -5 2 C-8.42744229 1.6392166 -10.88122044 1.44061022 -14 3 C-13.67 2.01 -13.34 1.02 -13 0 C-8.91738804 -2.04130598 -4.29663347 -1.01097258 0 0 Z " fill="#D6E3DE" transform="translate(98,92)"/>
<path d="M0 0 C0.99 0.495 0.99 0.495 2 1 C2.185625 1.804375 2.37125 2.60875 2.5625 3.4375 C3.72443562 6.16202718 3.72443562 6.16202718 6.12890625 6.7734375 C8.4146059 7.26706278 10.6838557 7.68069616 13 8 C12.67 8.66 12.34 9.32 12 10 C8.04 9.67 4.08 9.34 0 9 C0 6.03 0 3.06 0 0 Z " fill="#DEE8E5" transform="translate(81,111)"/>
<path d="M0 0 C0.66 0.33 1.32 0.66 2 1 C1.34 2.98 0.68 4.96 0 7 C1.32 7 2.64 7 4 7 C4 7.66 4 8.32 4 9 C1.03 9 -1.94 9 -5 9 C-5 8.34 -5 7.68 -5 7 C-4.01 6.67 -3.02 6.34 -2 6 C-0.77479736 2.99152582 -0.77479736 2.99152582 0 0 Z " fill="#C1D5CE" transform="translate(141,111)"/>
<path d="M0 0 C0.33 0 0.66 0 1 0 C1 3.63 1 7.26 1 11 C-3 6.25 -3 6.25 -3 4 C-2.34 4 -1.68 4 -1 4 C-0.67 2.68 -0.34 1.36 0 0 Z " fill="#F3F7F5" transform="translate(123,100)"/>
<path d="M0 0 C0.33 0 0.66 0 1 0 C1 2.64 1 5.28 1 8 C-0.98 8 -2.96 8 -5 8 C-4.19185349 6.66402348 -3.37836819 5.331275 -2.5625 4 C-2.11003906 3.2575 -1.65757813 2.515 -1.19140625 1.75 C-0.79824219 1.1725 -0.40507812 0.595 0 0 Z " fill="#F7F9F8" transform="translate(129,111)"/>
</svg>
