<svg version="1.1" id="Layer_1" xmlns="http://www.w3.org/2000/svg" xmlns:xlink="http://www.w3.org/1999/xlink" x="0px" y="0px"
	 width="100%" viewBox="0 0 225 225" enable-background="new 0 0 225 225" xml:space="preserve">
<path fill="#012855" opacity="1.000000" stroke="none" 
	d="
M207.001740,226.000000 
	C138.001328,226.000000 69.501396,226.000000 1.001097,226.000000 
	C1.000731,151.000565 1.000731,76.001122 1.000366,1.001258 
	C75.999367,1.000839 150.998734,1.000839 225.998581,1.000419 
	C225.999054,75.999298 225.999054,150.998596 225.999527,225.998947 
	C219.834061,226.000000 213.668137,226.000000 207.001740,226.000000 
M196.973557,169.042542 
	C195.716125,169.042542 194.458710,169.042542 193.149155,169.042542 
	C193.149155,177.617203 193.149155,185.684250 193.149155,193.797760 
	C197.954437,193.797760 202.494690,193.797760 207.255447,193.797760 
	C207.155548,191.986359 207.073853,190.505112 206.422760,188.451538 
	C199.000839,187.350952 199.116150,187.348465 198.948624,179.591461 
	C198.872650,176.074036 198.236084,172.568710 196.973557,169.042542 
M102.997124,174.025513 
	C104.918472,174.025513 106.839821,174.025513 109.123184,174.025513 
	C109.123184,180.958374 109.123184,187.375351 109.123184,193.890991 
	C110.897385,193.890991 112.294563,193.890991 114.099426,193.890991 
	C114.099426,187.259125 114.099426,180.844589 114.099426,174.243042 
	C116.600502,174.118713 118.712318,174.013718 121.124275,173.893829 
	C121.358513,172.411987 121.581917,170.998642 121.884972,169.081421 
	C115.062302,169.081421 108.619308,169.081421 101.396591,169.056152 
	C100.876648,169.062897 100.356705,169.069641 99.014961,169.053253 
	C97.631203,169.127258 96.247452,169.201263 94.363434,169.302017 
	C94.363434,173.420242 94.363434,177.092255 94.363434,181.932739 
	C88.661156,177.119934 83.859917,173.067627 78.479820,169.573608 
	C77.792381,172.111221 77.104935,174.648834 76.032051,176.665421 
	C69.382645,165.292847 57.762135,165.451675 49.538906,176.483902 
	C49.004963,173.994461 48.471020,171.505020 47.263584,169.077530 
	C43.543686,172.330994 39.823788,175.584473 36.147614,178.799698 
	C31.945595,175.402771 27.993484,172.207855 23.450111,169.601669 
	C23.299852,173.707779 22.954782,177.818619 23.054617,181.918640 
	C23.152691,185.946320 23.702663,189.962997 24.952478,194.096451 
	C26.223442,194.096451 27.494408,194.096451 29.305309,194.096451 
	C29.305309,189.330627 29.305309,184.989395 29.305309,180.013351 
	C31.904497,182.332794 33.862175,184.079773 35.956581,185.948761 
	C38.163307,184.050827 40.223881,182.278610 42.991577,179.898209 
	C42.991577,185.195206 42.991577,189.581345 42.991577,193.980408 
	C44.941338,193.980408 46.431690,193.980408 48.511421,193.452682 
	C49.180607,191.245590 49.849792,189.038498 50.925632,187.338547 
	C53.351246,192.276199 57.801579,195.438156 62.765362,195.309723 
	C68.770477,195.154343 74.153854,192.079697 77.461777,186.503189 
	C77.954857,188.669800 78.447929,190.836411 79.499481,193.556686 
	C80.919556,193.556686 82.339630,193.556686 84.083603,193.556686 
	C84.083603,189.294312 84.083603,185.388168 84.083603,180.296921 
	C86.414658,182.166351 88.033974,183.374741 89.551254,184.699951 
	C93.068581,187.772003 96.536575,190.900528 100.584106,193.386948 
	C100.722633,190.597534 100.791611,187.802505 101.016846,185.020111 
	C101.315857,181.326309 101.736801,177.642395 102.997124,174.025513 
M167.183624,189.826096 
	C163.472061,189.392715 159.760513,188.959335 155.740616,188.489960 
	C154.790314,179.368835 162.888748,184.957382 166.127945,182.158875 
	C165.973938,181.025192 165.787109,179.649689 165.705368,179.047989 
	C162.207794,176.727219 156.908752,180.859619 155.376785,174.062012 
	C159.465378,174.062012 163.040771,174.062012 168.377319,174.062012 
	C166.523712,171.699936 165.618301,169.441055 164.527756,169.347824 
	C159.813080,168.944748 155.044235,169.175262 151.057861,169.175262 
	C148.393402,172.221695 153.299149,178.207062 145.328979,177.650375 
	C145.135895,170.979523 142.931503,168.584320 136.454834,168.330536 
	C132.686722,168.182892 128.908112,168.303665 124.840347,168.303665 
	C124.840347,171.574158 124.840347,174.364624 124.840347,176.757675 
	C123.298660,177.881165 122.149544,178.718582 121.000420,179.555984 
	C121.915260,180.548157 122.982285,181.443359 123.696220,182.563583 
	C124.255905,183.441772 124.589287,184.585754 124.652374,185.633987 
	C124.791199,187.940552 124.695457,190.261230 124.695457,192.674194 
	C126.548531,192.674194 128.094910,192.674194 130.009506,192.674194 
	C130.009506,189.107635 130.009506,185.844803 130.009506,182.621429 
	C135.801956,181.054352 136.006775,186.145767 137.764420,188.788742 
	C139.634354,191.600540 141.061523,194.171722 145.263062,192.607178 
	C143.375412,189.576508 141.500793,186.566772 139.747345,183.751556 
	C142.122238,181.606369 144.159027,179.766617 146.111145,178.818695 
	C146.111145,180.418442 146.111145,182.018204 146.111145,183.710205 
	C147.537567,183.966049 148.746689,184.182922 149.876877,184.385651 
	C150.086502,188.032776 150.277313,191.352386 150.472092,194.741058 
	C153.807526,194.741058 156.286621,194.915848 158.729858,194.694580 
	C161.473129,194.446152 164.183975,193.839920 167.665039,193.669037 
	C170.158081,193.791519 172.378387,194.020966 173.641190,190.809799 
	C174.682907,188.160858 182.896194,188.616745 184.890564,190.775070 
	C186.309402,192.310516 188.423065,193.203903 190.226624,194.383850 
	C190.608368,193.893799 190.990112,193.403732 191.371841,192.913681 
	C187.181961,184.540665 182.992081,176.167633 178.515289,167.221237 
	C174.767929,175.352417 171.387634,182.687164 167.183624,189.826096 
M73.487602,109.618256 
	C73.487602,115.196739 73.487602,120.775223 73.487602,126.375549 
	C70.228004,126.557747 67.803291,126.693275 65.419754,126.826508 
	C65.419754,129.846771 65.419754,132.434662 65.419754,135.204376 
	C68.083023,135.385574 70.502205,135.550156 72.998924,135.720016 
	C73.305946,142.576691 73.600395,149.152618 74.469810,156.377777 
	C83.500557,156.530838 92.531136,156.703064 101.562523,156.786987 
	C102.077103,156.791763 102.598404,156.074051 103.386871,154.994125 
	C103.386871,152.265640 103.386871,149.537155 103.386871,146.347183 
	C96.147354,146.347183 89.386742,146.347183 82.478516,146.347183 
	C82.478516,142.608719 82.478516,139.354416 82.478516,135.529572 
	C89.072586,135.529572 95.470879,135.529572 101.944603,135.529572 
	C101.944603,132.230194 101.944603,129.511154 101.944603,126.240967 
	C95.211502,126.240967 88.813446,126.240967 82.500198,126.240967 
	C82.500198,123.249756 82.500198,120.820236 82.500198,117.972694 
	C86.215088,117.972694 89.699791,117.972694 93.184494,117.972694 
	C96.602112,117.972694 100.019730,117.972694 103.996323,117.972694 
	C103.608223,114.435562 103.307411,111.693985 102.380035,108.402306 
	C96.624290,108.267998 90.866982,107.988945 85.113373,108.051331 
	C81.403244,108.091545 77.698540,108.632637 73.487602,109.618256 
M34.391598,154.521942 
	C34.594959,151.896606 34.954514,149.272400 34.973732,146.645721 
	C35.044304,136.998871 35.002869,137.077240 44.395470,136.946411 
	C46.949852,136.910828 49.495445,136.244812 52.785912,136.339645 
	C52.828911,141.129257 52.731266,145.926300 52.983196,150.704895 
	C53.085896,152.652786 53.946903,154.560684 54.462898,156.486786 
	C57.035778,155.645905 59.608662,154.805023 62.663311,153.300583 
	C62.767475,139.397629 62.894066,125.494713 62.919727,111.591614 
	C62.921253,110.762833 62.114025,109.932556 60.808384,109.074600 
	C58.063103,109.074600 55.317825,109.074600 51.786327,109.074600 
	C51.786327,114.592865 51.786327,119.778114 50.878025,125.005180 
	C49.713192,125.033852 48.548450,125.082924 47.383511,125.088058 
	C35.153229,125.142006 35.210171,125.138245 34.822754,113.001198 
	C34.779778,111.654770 33.629925,110.343681 32.080349,109.022232 
	C29.479942,109.022232 26.879536,109.022232 23.718685,109.022232 
	C23.718685,115.173019 23.718685,120.722748 23.718685,126.393166 
	C20.846003,126.547516 18.556183,126.670555 16.133291,126.800735 
	C16.133291,129.680923 16.133291,132.315643 16.133291,135.221573 
	C18.707201,135.366272 21.160034,135.504166 24.014843,135.664658 
	C24.014843,141.380096 23.825153,147.029251 24.154341,152.648026 
	C24.232168,153.976456 25.946056,156.140518 27.097174,156.273178 
	C29.239542,156.520081 31.521427,155.556458 34.391598,154.521942 
M142.686615,123.063957 
	C145.413330,121.652023 148.140045,120.240089 150.930847,118.794975 
	C143.514694,109.308502 131.765945,105.912476 121.244308,109.946777 
	C111.023476,113.865738 105.188789,123.405403 106.037354,134.810013 
	C106.772881,144.695572 114.883720,153.706421 125.073837,155.958893 
	C135.947937,158.362549 146.292236,154.523560 151.050262,146.226471 
	C148.672073,144.551147 146.285568,142.869949 143.965302,141.235413 
	C135.501419,149.328476 127.007530,149.975571 120.483704,143.260620 
	C114.496971,137.098480 114.502701,127.765152 120.496902,121.733131 
	C126.686928,115.504044 135.438858,115.851326 142.686615,123.063957 
M162.377045,159.799271 
	C160.892227,159.799622 159.402054,159.881454 157.923645,159.784241 
	C154.263885,159.543518 154.376419,161.402878 155.380020,164.086151 
	C157.179398,164.086151 158.818420,164.086151 160.457443,164.086151 
	C162.216187,164.086151 163.974915,164.086151 165.733658,164.086151 
	C166.021103,163.607010 166.308548,163.127869 166.595993,162.648727 
	C165.506668,161.699326 164.417343,160.749924 162.377045,159.799271 
z"/>
<path fill="#F6F7F8" opacity="1.000000" stroke="none" 
	d="
M51.786327,124.963356 
	C51.786327,119.778114 51.786327,114.592865 51.786327,109.074600 
	C55.317825,109.074600 58.063103,109.074600 61.297634,109.547409 
	C61.918438,124.668205 62.049992,139.316177 62.181545,153.964157 
	C59.608662,154.805023 57.035778,155.645905 54.462898,156.486786 
	C53.946903,154.560684 53.085896,152.652786 52.983196,150.704895 
	C52.731266,145.926300 52.828911,141.129257 51.967354,135.941299 
	C45.416634,135.542953 39.684475,135.542953 33.745239,135.542953 
	C33.745239,142.507477 33.745239,148.802094 33.745239,155.096725 
	C31.521427,155.556458 29.239542,156.520081 27.097174,156.273178 
	C25.946056,156.140518 24.232168,153.976456 24.154341,152.648026 
	C23.825153,147.029251 24.014843,141.380096 24.014843,135.664658 
	C21.160034,135.504166 18.707201,135.366272 16.133291,135.221573 
	C16.133291,132.315643 16.133291,129.680923 16.133291,126.800735 
	C18.556183,126.670555 20.846003,126.547516 23.718685,126.393166 
	C23.718685,120.722748 23.718685,115.173019 23.718685,109.022232 
	C26.879536,109.022232 29.479942,109.022232 32.735130,109.450104 
	C33.389912,115.427628 33.389912,120.977272 33.389912,126.711327 
	C39.445816,126.711327 44.572697,126.778801 49.693554,126.633667 
	C50.406353,126.613464 51.089470,125.546013 51.786327,124.963356 
z"/>
<path fill="#F5F6F7" opacity="1.000000" stroke="none" 
	d="
M103.006599,108.952408 
	C103.307411,111.693985 103.608223,114.435562 103.996323,117.972694 
	C100.019730,117.972694 96.602112,117.972694 93.184494,117.972694 
	C89.699791,117.972694 86.215088,117.972694 82.500198,117.972694 
	C82.500198,120.820236 82.500198,123.249756 82.500198,126.240967 
	C88.813446,126.240967 95.211502,126.240967 101.944603,126.240967 
	C101.944603,129.511154 101.944603,132.230194 101.944603,135.529572 
	C95.470879,135.529572 89.072586,135.529572 82.478516,135.529572 
	C82.478516,139.354416 82.478516,142.608719 82.478516,146.347183 
	C89.386742,146.347183 96.147354,146.347183 103.386871,146.347183 
	C103.386871,149.537155 103.386871,152.265640 102.773178,155.309616 
	C92.737946,155.659592 83.316391,155.694077 73.894844,155.728561 
	C73.600395,149.152618 73.305946,142.576691 72.998924,135.720016 
	C70.502205,135.550156 68.083023,135.385574 65.419754,135.204376 
	C65.419754,132.434662 65.419754,129.846771 65.419754,126.826508 
	C67.803291,126.693275 70.228004,126.557747 73.487602,126.375549 
	C73.487602,120.775223 73.487602,115.196739 74.208977,109.314850 
	C84.289101,108.991760 93.647850,108.972084 103.006599,108.952408 
z"/>
<path fill="#F8F9FA" opacity="1.000000" stroke="none" 
	d="
M142.392487,122.827141 
	C135.438858,115.851326 126.686928,115.504044 120.496902,121.733131 
	C114.502701,127.765152 114.496971,137.098480 120.483704,143.260620 
	C127.007530,149.975571 135.501419,149.328476 143.965302,141.235413 
	C146.285568,142.869949 148.672073,144.551147 151.050262,146.226471 
	C146.292236,154.523560 135.947937,158.362549 125.073837,155.958893 
	C114.883720,153.706421 106.772881,144.695572 106.037354,134.810013 
	C105.188789,123.405403 111.023476,113.865738 121.244308,109.946777 
	C131.765945,105.912476 143.514694,109.308502 150.930847,118.794975 
	C148.140045,120.240089 145.413330,121.652023 142.392487,122.827141 
z"/>
<path fill="#F2F3F5" opacity="1.000000" stroke="none" 
	d="
M76.901108,185.991882 
	C74.153854,192.079697 68.770477,195.154343 62.765362,195.309723 
	C57.801579,195.438156 53.351246,192.276199 50.592781,186.655853 
	C50.211182,182.988678 50.162430,180.004181 50.113678,177.019699 
	C57.762135,165.451675 69.382645,165.292847 76.352325,177.351196 
	C76.748764,180.688614 76.824936,183.340240 76.901108,185.991882 
M63.438511,174.665436 
	C60.402199,173.935547 57.894451,174.713318 56.619873,177.666153 
	C55.080418,181.232620 54.772167,185.444046 58.317646,187.409286 
	C60.893646,188.837143 65.183289,189.085800 67.869064,187.922058 
	C71.271500,186.447784 72.289635,182.280777 70.805000,178.679443 
	C69.753899,176.129761 68.175064,173.031372 63.438511,174.665436 
z"/>
<path fill="#F0F1F3" opacity="1.000000" stroke="none" 
	d="
M146.195801,177.926849 
	C144.159027,179.766617 142.122238,181.606369 139.747345,183.751556 
	C141.500793,186.566772 143.375412,189.576508 145.263062,192.607178 
	C141.061523,194.171722 139.634354,191.600540 137.764420,188.788742 
	C136.006775,186.145767 135.801956,181.054352 130.009506,182.621429 
	C130.009506,185.844803 130.009506,189.107635 130.009506,192.674194 
	C128.094910,192.674194 126.548531,192.674194 124.695457,192.674194 
	C124.695457,190.261230 124.791199,187.940552 124.652374,185.633987 
	C124.589287,184.585754 124.255905,183.441772 123.696220,182.563583 
	C122.982285,181.443359 121.915260,180.548157 121.000427,179.555984 
	C122.149544,178.718582 123.298660,177.881165 124.840347,176.757675 
	C124.840347,174.364624 124.840347,171.574158 124.840347,168.303665 
	C128.908112,168.303665 132.686722,168.182892 136.454834,168.330536 
	C142.931503,168.584320 145.135895,170.979523 145.740646,177.826935 
	C146.152313,178.003510 146.195801,177.926849 146.195801,177.926849 
M130.719559,177.899017 
	C133.867325,177.313538 137.747620,179.447433 141.273468,174.686234 
	C137.117386,174.686234 134.232376,174.557617 131.379532,174.803009 
	C130.856812,174.847977 130.464890,176.413483 130.719559,177.899017 
z"/>
<path fill="#E6E8EC" opacity="1.000000" stroke="none" 
	d="
M166.908936,193.389359 
	C164.183975,193.839920 161.473129,194.446152 158.729858,194.694580 
	C156.286621,194.915848 153.807526,194.741058 150.472092,194.741058 
	C150.277313,191.352386 150.086502,188.032776 149.876877,184.385651 
	C148.746689,184.182922 147.537567,183.966049 146.111145,183.710205 
	C146.111145,182.018204 146.111145,180.418442 146.153473,178.372772 
	C146.195801,177.926849 146.152313,178.003510 146.115738,178.023163 
	C153.299149,178.207062 148.393402,172.221695 151.057861,169.175262 
	C155.044235,169.175262 159.813080,168.944748 164.527756,169.347824 
	C165.618301,169.441055 166.523712,171.699936 168.377319,174.062012 
	C163.040771,174.062012 159.465378,174.062012 155.376785,174.062012 
	C156.908752,180.859619 162.207794,176.727219 165.705368,179.047989 
	C165.787109,179.649689 165.973938,181.025192 166.127945,182.158875 
	C162.888748,184.957382 154.790314,179.368835 155.740616,188.489960 
	C159.760513,188.959335 163.472061,189.392715 167.584915,190.224396 
	C167.627121,191.544907 167.268036,192.467133 166.908936,193.389359 
z"/>
<path fill="#F2F3F5" opacity="1.000000" stroke="none" 
	d="
M100.024567,194.006149 
	C96.536575,190.900528 93.068581,187.772003 89.551254,184.699951 
	C88.033974,183.374741 86.414658,182.166351 84.083603,180.296921 
	C84.083603,185.388168 84.083603,189.294312 84.083603,193.556686 
	C82.339630,193.556686 80.919556,193.556686 79.258072,192.811630 
	C79.030670,184.382828 79.044670,176.699081 79.058670,169.015320 
	C83.859917,173.067627 88.661156,177.119934 94.363434,181.932739 
	C94.363434,177.092255 94.363434,173.420242 94.363434,169.302017 
	C96.247452,169.201263 97.631203,169.127258 99.468643,169.525757 
	C99.956406,178.000885 99.990486,186.003510 100.024567,194.006149 
z"/>
<path fill="#F9FAFB" opacity="1.000000" stroke="none" 
	d="
M47.922047,193.980408 
	C46.431690,193.980408 44.941338,193.980408 42.991577,193.980408 
	C42.991577,189.581345 42.991577,185.195206 42.991577,179.898209 
	C40.223881,182.278610 38.163307,184.050827 35.956581,185.948761 
	C33.862175,184.079773 31.904497,182.332794 29.305309,180.013351 
	C29.305309,184.989395 29.305309,189.330627 29.305309,194.096451 
	C27.494408,194.096451 26.223442,194.096451 24.486601,193.573181 
	C24.027607,185.037598 24.034491,177.025269 24.041374,169.012955 
	C27.993484,172.207855 31.945595,175.402771 36.147614,178.799698 
	C39.823788,175.584473 43.543686,172.330994 47.610352,169.514191 
	C47.945423,177.960693 47.933735,185.970551 47.922047,193.980408 
z"/>
<path fill="#F5F6F7" opacity="1.000000" stroke="none" 
	d="
M167.286987,193.529205 
	C167.268036,192.467133 167.627121,191.544907 167.996765,190.322296 
	C171.387634,182.687164 174.767929,175.352417 178.515289,167.221237 
	C182.992081,176.167633 187.181961,184.540665 191.371841,192.913681 
	C190.990112,193.403732 190.608368,193.893799 190.226624,194.383850 
	C188.423065,193.203903 186.309402,192.310516 184.890564,190.775070 
	C182.896194,188.616745 174.682907,188.160858 173.641190,190.809799 
	C172.378387,194.020966 170.158081,193.791519 167.286987,193.529205 
M180.528488,184.808044 
	C184.237961,182.018829 180.076065,180.790665 179.621170,177.994370 
	C178.253586,180.666443 177.308182,182.513626 176.130646,184.814377 
	C177.805435,184.814377 178.784851,184.814377 180.528488,184.808044 
z"/>
<path fill="#F8F9FA" opacity="1.000000" stroke="none" 
	d="
M102.176323,169.081421 
	C108.619308,169.081421 115.062302,169.081421 121.884972,169.081421 
	C121.581917,170.998642 121.358513,172.411987 121.124275,173.893829 
	C118.712318,174.013718 116.600502,174.118713 114.099426,174.243042 
	C114.099426,180.844589 114.099426,187.259125 114.099426,193.890991 
	C112.294563,193.890991 110.897385,193.890991 109.123184,193.890991 
	C109.123184,187.375351 109.123184,180.958374 109.123184,174.025513 
	C106.839821,174.025513 104.918472,174.025513 102.526489,173.583771 
	C102.096016,171.788498 102.136169,170.434967 102.176323,169.081421 
z"/>
<path fill="#FCFDFD" opacity="1.000000" stroke="none" 
	d="
M206.992157,189.023865 
	C207.073853,190.505112 207.155548,191.986359 207.255447,193.797760 
	C202.494690,193.797760 197.954437,193.797760 193.149155,193.797760 
	C193.149155,185.684250 193.149155,177.617203 193.149155,169.042542 
	C194.458710,169.042542 195.716125,169.042542 197.464478,169.511795 
	C197.955383,176.312103 197.955383,182.643158 197.955383,189.023865 
	C201.417542,189.023865 204.204849,189.023865 206.992157,189.023865 
z"/>
<path fill="#2A3D67" opacity="1.000000" stroke="none" 
	d="
M51.332176,124.984268 
	C51.089470,125.546013 50.406353,126.613464 49.693554,126.633667 
	C44.572697,126.778801 39.445816,126.711327 33.389912,126.711327 
	C33.389912,120.977272 33.389912,115.427628 33.191666,109.447090 
	C33.629925,110.343681 34.779778,111.654770 34.822754,113.001198 
	C35.210171,125.138245 35.153229,125.142006 47.383511,125.088058 
	C48.548450,125.082924 49.713192,125.033852 51.332176,124.984268 
z"/>
<path fill="#000B48" opacity="1.000000" stroke="none" 
	d="
M62.422428,153.632370 
	C62.049992,139.316177 61.918438,124.668205 61.735008,109.561600 
	C62.114025,109.932556 62.921253,110.762833 62.919727,111.591614 
	C62.894066,125.494713 62.767475,139.397629 62.422428,153.632370 
z"/>
<path fill="#FFFFFF" opacity="1.000000" stroke="none" 
	d="
M162.852539,159.799896 
	C164.417343,160.749924 165.506668,161.699326 166.595993,162.648727 
	C166.308548,163.127869 166.021103,163.607010 165.733658,164.086151 
	C163.974915,164.086151 162.216187,164.086151 160.457443,164.086151 
	C158.818420,164.086151 157.179398,164.086151 155.380020,164.086151 
	C154.376419,161.402878 154.263885,159.543518 157.923645,159.784241 
	C159.402054,159.881454 160.892227,159.799622 162.852539,159.799896 
z"/>
<path fill="#00174D" opacity="1.000000" stroke="none" 
	d="
M34.068420,154.809326 
	C33.745239,148.802094 33.745239,142.507477 33.745239,135.542953 
	C39.684475,135.542953 45.416634,135.542953 51.596935,135.705536 
	C49.495445,136.244812 46.949852,136.910828 44.395470,136.946411 
	C35.002869,137.077240 35.044304,136.998871 34.973732,146.645721 
	C34.954514,149.272400 34.594959,151.896606 34.068420,154.809326 
z"/>
<path fill="#080D4B" opacity="1.000000" stroke="none" 
	d="
M48.216736,193.716553 
	C47.933735,185.970551 47.945423,177.960693 47.947098,169.483215 
	C48.471020,171.505020 49.004963,173.994461 49.826294,176.751801 
	C50.162430,180.004181 50.211182,182.988678 50.389458,186.402283 
	C49.849792,189.038498 49.180607,191.245590 48.216736,193.716553 
z"/>
<path fill="#06124E" opacity="1.000000" stroke="none" 
	d="
M78.769241,169.294464 
	C79.044670,176.699081 79.030670,184.382828 78.978836,192.534790 
	C78.447929,190.836411 77.954857,188.669800 77.181442,186.247528 
	C76.824936,183.340240 76.748764,180.688614 76.545044,177.611710 
	C77.104935,174.648834 77.792381,172.111221 78.769241,169.294464 
z"/>
<path fill="#000044" opacity="1.000000" stroke="none" 
	d="
M101.786453,169.068787 
	C102.136169,170.434967 102.096016,171.788498 102.080612,173.548126 
	C101.736801,177.642395 101.315857,181.326309 101.016846,185.020111 
	C100.791611,187.802505 100.722633,190.597534 100.304337,193.696548 
	C99.990486,186.003510 99.956406,178.000885 99.879539,169.537308 
	C100.356705,169.069641 100.876648,169.062897 101.786453,169.068787 
z"/>
<path fill="#00174D" opacity="1.000000" stroke="none" 
	d="
M74.182327,156.053162 
	C83.316391,155.694077 92.737946,155.659592 102.638031,155.658859 
	C102.598404,156.074051 102.077103,156.791763 101.562523,156.786987 
	C92.531136,156.703064 83.500557,156.530838 74.182327,156.053162 
z"/>
<path fill="#000044" opacity="1.000000" stroke="none" 
	d="
M102.693314,108.677353 
	C93.647850,108.972084 84.289101,108.991760 74.460876,108.980347 
	C77.698540,108.632637 81.403244,108.091545 85.113373,108.051331 
	C90.866982,107.988945 96.624290,108.267998 102.693314,108.677353 
z"/>
<path fill="#000044" opacity="1.000000" stroke="none" 
	d="
M206.707458,188.737701 
	C204.204849,189.023865 201.417542,189.023865 197.955383,189.023865 
	C197.955383,182.643158 197.955383,176.312103 197.904602,169.519470 
	C198.236084,172.568710 198.872650,176.074036 198.948624,179.591461 
	C199.116150,187.348465 199.000839,187.350952 206.707458,188.737701 
z"/>
<path fill="#000044" opacity="1.000000" stroke="none" 
	d="
M23.745743,169.307312 
	C24.034491,177.025269 24.027607,185.037598 24.037525,193.517212 
	C23.702663,189.962997 23.152691,185.946320 23.054617,181.918640 
	C22.954782,177.818619 23.299852,173.707779 23.745743,169.307312 
z"/>
<path fill="#042A57" opacity="1.000000" stroke="none" 
	d="
M63.813797,174.650177 
	C68.175064,173.031372 69.753899,176.129761 70.805000,178.679443 
	C72.289635,182.280777 71.271500,186.447784 67.869064,187.922058 
	C65.183289,189.085800 60.893646,188.837143 58.317646,187.409286 
	C54.772167,185.444046 55.080418,181.232620 56.619873,177.666153 
	C57.894451,174.713318 60.402199,173.935547 63.813797,174.650177 
z"/>
<path fill="#0C2C59" opacity="1.000000" stroke="none" 
	d="
M130.366089,177.588058 
	C130.464890,176.413483 130.856812,174.847977 131.379532,174.803009 
	C134.232376,174.557617 137.117386,174.686234 141.273468,174.686234 
	C137.747620,179.447433 133.867325,177.313538 130.366089,177.588058 
z"/>
<path fill="#2A3D67" opacity="1.000000" stroke="none" 
	d="
M180.146378,184.811218 
	C178.784851,184.814377 177.805435,184.814377 176.130646,184.814377 
	C177.308182,182.513626 178.253586,180.666443 179.621170,177.994370 
	C180.076065,180.790665 184.237961,182.018829 180.146378,184.811218 
z"/>
</svg>