<?xml version="1.0" standalone="yes"?>
<svg xmlns="http://www.w3.org/2000/svg" width="500" height="456">
<path style="fill:#f4f8fa; stroke:none;" d="M0 0L0 456L500 456L500 0L0 0z"/>
<path style="fill:#02070b; stroke:none;" d="M168 120C144.064 120 120.014 118.961 96 119C85.2878 119.017 71.255 119.115 63.1852 127.185C50.6263 139.744 55.3754 170.963 61.0656 186C63.0912 191.353 69.5343 197.435 69.5802 203.039C69.7768 226.996 60.4985 254.505 55.8002 278C53.7428 288.288 53.7141 302.594 49.3472 311.985C46.4479 318.219 39.3355 318.26 34 321.363C27.9521 324.881 24.0771 331.246 22.5293 338C18.8628 353.999 23.0552 383.599 34.1852 395.985C46.8867 410.12 67.3411 411 85 411L189 411C190.511 429.498 199.3 446.175 218 451.792C240.17 458.45 272.097 457.454 295 454.715C303.113 453.744 312.139 449.057 320 449.057C327.861 449.057 336.887 453.744 345 454.715C361.576 456.697 379.304 455 396 455C412.175 455 430.862 456.29 445 446.895C465.801 433.072 468.778 398.376 454.097 379.004C447.975 370.926 437.358 368.138 431.652 359.996C427.103 353.505 424.935 344.174 421.258 337C418.098 330.835 410.014 319.346 410.508 312.285C410.946 306.018 423.854 295.548 428.09 291C436.969 281.464 444.976 268.492 455.015 260.39C467.847 250.033 483.371 248.551 489.652 231C498.961 204.988 490.131 173.918 461 166.899C427.644 158.862 391.353 164.83 358 166.938C350.008 167.443 341.06 164.641 333 164.09C316.396 162.952 299.661 163 283 163C286.591 152.413 286.421 140.298 290.264 130.004C292.103 125.079 298.305 123.492 299.682 118.79C303.422 106.017 300 87.3367 300 74C300 66.2069 303.241 49.0121 298.972 42.3935C293.698 34.2162 274.345 35.3261 266 34.9606C240.707 33.853 215.365 33.9984 190 34C178.805 34.0007 165.034 34.6778 158.248 45.0146C149.155 58.8652 153.677 87.2616 159.093 102C161.444 108.397 168.143 113.034 168 120z"/>
<path style="fill:#f4f8fa; stroke:none;" d="M178 59L178 69C185.556 69.5963 198.788 67.7732 201.397 77.0008C202.582 81.1932 200.479 86.8111 199.75 91C197.829 102.034 195.413 112.979 193.424 124C188.426 151.702 183.135 179.359 177.803 207C175.323 219.859 174.645 234.745 169.971 247C164.935 260.206 151.111 250.225 145.028 257.742C143.232 259.962 144 264.34 144 267L229 267C229 264.193 229.905 259.166 227.397 257.179C220.929 252.057 206.279 260.623 205.072 247C204.166 236.776 209.198 224.116 210.919 214C215.696 185.913 221.865 158.067 226.75 130C229.423 114.643 229.671 90.7148 237.175 77.0895C242.057 68.2248 254.374 69.6808 263 69L263 59L178 59z"/>
<path style="fill:#91a9b8; stroke:none;" d="M178 69L178 70L183 70L178 69M258 69L258 70L263 70L258 69M187 70L187 71L198 71L187 70M243 70L243 71L253 71L243 70M198.333 71.6667L198.667 72.3333L198.333 71.6667M242 71L243 72L242 71M241 72L242 73L241 72M199 73L200 74L199 73M240 73L241 74L240 73M200 74L201 75L200 74M238.667 74.3333L239.333 74.6667L238.667 74.3333M201.333 75.6667L201.667 76.3333L201.333 75.6667M237 75L238 76L237 75M236 77L236 81L237 81L236 77M201 78L201 82L202 82L201 78M200 83L200 87L201 87L200 83M235 83L235 87L236 87L235 83M234 88L234 92L235 92L234 88M199 89L199 93L200 93L199 89M233 93L233 97L234 97L233 93M198 94L198 98L199 98L198 94M197 99L197 103L198 103L197 99M232 99L232 103L233 103L232 99M196 104L196 109L197 109L196 104M231 104L231 108L232 108L231 104M230 109L230 113L231 113L230 109M195 110L195 114L196 114L195 110M194 115L194 119L195 119L194 115M229 115L229 119L230 119L229 115M193 120L193 124L194 124L193 120M228 120L228 124L229 124L228 120M227 125L227 129L228 129L227 125M192 126L192 130L193 130L192 126M191 131L191 135L192 135L191 131M226 131L226 135L227 135L226 131M190 136L190 140L191 140L190 136M225 136L225 140L226 140L225 136M224 141L224 145L225 145L224 141M189 142L189 146L190 146L189 142M80 144C80 147.884 78.4191 154.018 83 155L83 154L81 145L163 145L162 155L153 155C159.026 157.528 171.135 151.157 163.397 145.028C159.133 141.65 146.278 144 141 144L80 144z"/>
<path style="fill:#f4f8fa; stroke:none;" d="M81 145C81.002 147.614 80.2647 151.969 82.6034 153.821C88.6121 158.579 102.383 151.591 103.258 164C104.145 176.592 98.1979 192.586 95.8032 205C90.6645 231.639 85.9422 258.36 80.8032 285C78.0211 299.422 78.1803 321.162 71.0116 333.985C66.4603 342.127 55.1925 341.932 47 342L47 352L193 352L198 326C192.745 326 181.933 323.932 177.51 327.028C172.652 330.428 173.012 336.733 166 338.57C148.357 343.194 124.269 339 106 339C106.794 320.56 112.434 301.118 115.999 283C121.628 254.391 126.441 225.721 132 197C134.106 186.117 133.777 164.188 144.005 157.742C148.758 154.747 156.541 155.015 162 155L163 145L81 145z"/>
<path style="fill:#91a9b8; stroke:none;" d="M188 147L188 151L189 151L188 147M223 147L223 151L224 151L223 147M187 152L187 156L188 156L187 152M222 152L222 156L223 156L222 152M86 155L86 156L95 156L86 155M99 156L100 157L99 156M145 156L145 157L150 157L145 156M100.333 157.667L100.667 158.333L100.333 157.667M142 159L145 157L142 159M221 157L221 161L222 161L221 157M186 158L186 162L187 162L186 158M101 159L102 160L101 159M141 159L142 160L141 159M102 160L103 161L102 160M140 160L141 161L140 160M103 161L103 165L104 165L103 161M139 161L140 162L139 161M138 162L138 166L139 166L138 162M220 162L220 167L221 167L220 162M185 163L185 167L186 167L185 163M102 166L102 170L103 170L102 166M137 167L137 171L138 171L137 167M184 168L184 172L185 172L184 168M219 168L219 172L220 172L219 168M101 171L101 175L102 175L101 171M136 172L136 177L137 177L136 172M183 173L183 178L184 178L183 173M218 173L218 177L219 177L218 173M100 177L100 181L101 181L100 177M135 178L135 182L136 182L135 178M217 178L217 183L218 183L217 178M182 179L182 183L183 183L182 179M99 182L99 186L100 186L99 182M134 183L134 187L135 187L134 183M181 184L181 188L182 188L181 184M216 184L216 188L217 188L216 184M98 187L98 191L99 191L98 187M133 188L133 193L134 193L133 188M248 188L248 189L330 189L330 199L331 199L331 188L248 188z"/>
<path style="fill:#d8023f; stroke:none;" d="M370 188L370 199C375.515 200.024 385.77 198.513 388.283 204.965C390.464 210.564 378.703 220.148 375.421 224C369.134 231.38 351.044 246.071 350.492 256C350.257 260.218 353.502 265.14 355 269L375.285 249L415.285 204.148L435.972 198.258L437 188L370 188z"/>
<path style="fill:#91a9b8; stroke:none;" d="M180 189L180 193L181 193L180 189M215 189L215 193L216 193L215 189z"/>
<path style="fill:#fcdd0e; stroke:none;" d="M248 189L248 200C253.491 200 260.792 198.814 265.826 201.434C275.169 206.296 280.05 226.836 284.231 236C299.074 268.537 313.824 301.165 328 334C332.33 344.029 336.697 354.061 341.231 364C342.96 367.791 346.825 373.695 345.929 377.999C344.042 387.065 329.908 385.999 323 386L323 397L406 397C405.998 382.173 398.697 389.734 389.015 384.062C384.587 381.467 382.392 376.506 380.424 372C362.75 331.524 344.001 291.521 326.424 251C321.931 240.642 317.456 230.273 312.769 220C311.256 216.682 307.622 211.189 308.387 207.425C310.148 198.77 323.431 199.518 330 199L330 189L248 189z"/>
<path style="fill:#91a9b8; stroke:none;" d="M97 193L97 197L98 197L97 193M132 194L132 198L133 198L132 194M214 194L214 198L215 198L214 194M179 195L179 199L180 199L179 195M96 198L96 202L97 202L96 198M131 199L131 203L132 203L131 199M325 199L325 200L329 200L325 199M178 200L178 204L179 204L178 200M213 200L213 204L214 204L213 200M257 200L257 201L264 201L257 200M314 200L314 201L319 201L314 200M267 201L268 202L267 201M95 203L95 207L96 207L95 203M310 203L311 204L310 203M309 204L310 205L309 204M130 205L130 209L131 209L130 205M177 205L177 209L178 209L177 205M212 205L212 209L213 209L212 205M270 205L271 206L270 205M271 207L272 208L271 207M307 207L308 208L307 207M94 209L94 213L95 213L94 209M272 209L273 210L272 209M129 210L129 214L130 214L129 210M211 210L211 214L212 214L211 210M308 210L309 211L308 210M176 211L176 215L177 215L176 211M273 212L274 213L273 212M309 212L310 213L309 212M93 214L93 218L94 218L93 214M274 214L275 215L274 214M310 214L311 215L310 214M128 215L128 219L129 219L128 215M175 216L175 220L176 220L175 216M210 216L210 220L211 220L210 216M275 216L276 217L275 216M311 217L312 218L311 217M276 218L277 219L276 218M92 219L92 223L93 223L92 219M312 219L313 220L312 219M127 221L127 225L128 225L127 221M174 221L174 225L175 225L174 221M209 221L209 225L210 225L209 221M277 221L278 222L277 221M313 221L314 222L313 221M278 223L279 224L278 223M314 223L315 224L314 223M91 225L91 229L92 229L91 225M279 225L280 226L279 225M126 226L126 230L127 230L126 226M208 226L208 230L209 230L208 226M315 226L316 227L315 226M173 227L173 231L174 231L173 227M280 227L281 228L280 227M316 228L317 229L316 228M281.333 229.667L281.667 230.333L281.333 229.667M90 230L90 234L91 234L90 230M317 230L318 231L317 230M125 231L125 235L126 235L125 231M172 232L172 236L173 236L172 232M207 232L207 236L208 236L207 232M282 232L283 233L282 232M318 232L319 233L318 232M283 234L284 235L283 234M89 235L89 239L90 239L89 235M319 235L320 236L319 235M284 236L285 237L284 236M124 237L124 241L125 241L124 237M171 237L171 241L172 241L171 237M206 237L206 241L207 241L206 237M320 237L321 238L320 237M285 238L286 239L285 238M321 239L322 240L321 239M88 241L88 245L89 245L88 241M286 241L287 242L286 241M322 241L323 242L322 241M123 242L123 246L124 246L123 242M170 242L170 246L171 246L170 242M205 242L205 246L206 246L205 242M287 243L288 244L287 243M323 244L324 245L323 244M288 245L289 246L288 245M87 246L87 250L88 250L87 246M122 246L120 262L121 262L122 246M324 246L325 247L324 246M289 247L290 248L289 247M169.333 248.667L169.667 249.333L169.333 248.667M204.333 248.667L204.667 249.333L204.333 248.667M325 248L326 249L325 248M168 250L169 251L168 250M205 250L206 251L205 250M290 250L291 251L290 250M326.333 250.667L326.667 251.333L326.333 250.667M86 251L86 255L87 255L86 251M167 251L168 252L167 251M206 251L207 252L206 251M166 252L167 253L166 252M207 252L208 253L207 252M291 252L292 253L291 252M165 253L166 254L165 253M208 253L209 254L208 253M327 253L328 254L327 253M163.667 254.333L164.333 254.667L163.667 254.333M209 254L210 255L209 254M292 254L293 255L292 254M149 255L149 256L159 256L149 255M210 255L210 256L222 256L210 255M328 255L329 256L328 255M144.667 256.333L145.333 256.667L144.667 256.333M227 256L227 257L229 267L230 267L230 256L227 256M293 256L294 257L293 256M85 257L85 261L86 261L85 257M329 257L330 258L329 257M294 258L295 259L294 258M330 260L331 261L330 260M295 261L296 262L295 261M84 262L84 266L85 266L84 262M331 262L332 263L331 262M296 263L297 264L296 263M119 264L119 268L120 268L119 264M332 264L333 265L332 264M297 265L298 266L297 265M333 266L334 267L333 266M83 267L83 271L84 271L83 267M144 267L144 268L229 268L203 267L144 267M298 267L299 268L298 267M118 269L118 273L119 273L118 269M334 269L335 270L334 269M299 270L300 271L299 270M335 271L336 272L335 271M300 272L301 273L300 272M82 273L82 277L83 277L82 273M336 273L337 274L336 273M117 274L117 278L118 278L117 274M301 274L302 275L301 274M337 275L338 276L337 275M302 276L303 277L302 276M81 278L81 282L82 282L81 278M303 278L304 279L303 278M338 278L339 279L338 278M116 280L116 284L117 284L116 280M339 280L340 281L339 280M304 281L305 282L304 281M340 282L341 283L340 282M80 283L80 287L81 287L80 283M305 283L306 284L305 283M341 284L342 285L341 284M115 285L115 289L116 289L115 285M306 285L307 286L306 285M307 287L308 288L307 287M342 287L343 288L342 287M79 288L79 293L80 293L79 288M343 289L344 290L343 289M114 290L114 294L115 294L114 290M308 290L309 291L308 290M344 291L345 292L344 291M309 292L310 293L309 292M345 293L346 294L345 293M78 294L78 298L79 298L78 294M310 294L311 295L310 294M176 327L199 327L204 295C199.376 295 190.425 293.279 186.51 296.028C180.594 300.182 177.024 320.069 176 327M113 296L113 300L114 300L113 296M311 296L312 297L311 296M346 296L347 297L346 296M312 298L313 299L312 298M347 298L348 299L347 298M77 299L77 303L78 303L77 299M348 300L349 301L348 300M112 301L112 305L113 305L112 301M313 301L314 302L313 301M349 302L350 303L349 302M314 303L315 304L314 303M76 304L76 309L77 309L76 304M350.333 304.667L350.667 305.333L350.333 304.667M315 305L316 306L315 305M111 306L111 311L112 311L111 306M316 307L317 308L316 307M351 307L352 308L351 307z"/>
<path style="fill:#d8023f; stroke:none;" d="M297 309C283.221 324.772 269.098 340.252 255.285 356C242.026 371.117 233.291 385.086 212 386L212 397L283 397L283 386C277.454 385.954 260.808 386.864 261.641 377.999C262.092 373.199 268.461 368.431 271.424 365C284.317 350.068 315.278 329.242 297 309z"/>
<path style="fill:#91a9b8; stroke:none;" d="M352 309L353 310L352 309M75 310L75 314L76 314L75 310M317 310L318 311L317 310M353 311L354 312L353 311M110 312L110 316L111 316L110 312M318 312L319 313L318 312M354 313L355 314L354 313M319 314L320 315L319 314M74 315L74 319L75 319L74 315M355 316L356 317L355 316M109 317L109 321L110 321L109 317M320 317L321 318L320 317M356 318L357 319L356 318M321 319L322 320L321 319M73 320L73 325L74 325L73 320M357 320L358 321L357 320M322 321L323 322L322 321M358 322L359 323L358 322M108 323L108 327L109 327L108 323M323 323L324 324L323 323M359 325L360 326L359 325M72 326L72 330L73 330L72 326M324 326L325 327L324 326M175 327L175 330L176 330L175 327M360 327L361 328L360 327M107 328L107 332L108 332L107 328M197 328L197 332L198 332L197 328M325 328L326 329L325 328M361 329L362 330L361 329M326 330L327 331L326 330M71 331L71 335L72 335L71 331M174.333 331.667L174.667 332.333L174.333 331.667M362 331L363 332L362 331M327 332L328 333L327 332M106 333L106 337L107 337L106 333M173 333L172 335L174 335L173 333M196 333L196 337L197 337L196 333M363 334L364 335L363 334M70 335L71 336L70 335M171 335L172 336L171 335M328 335L329 336L328 335M69 336L70 337L69 336M170 336L171 337L170 336M364 336L365 337L364 336M68 337L69 338L68 337M168.667 337.333L169.333 337.667L168.667 337.333M329 337L330 338L329 337M66.6667 338.333L67.3333 338.667L66.6667 338.333M167 338L168 339L167 338M195 338L195 342L196 342L195 338M365 338L366 339L365 338M65 339L66 340L65 339M330 339L331 340L330 339M58 340L58 341L65 341L58 340M366 340L367 341L366 340M47 341L47 342L55 342L47 341M331.333 341.667L331.667 342.333L331.333 341.667M46 342L46 353L194 353L194 349L193 349L193 352L47 352L46 342M367 343L368 344L367 343M194 344L194 348L195 348L194 344M332 344L333 345L332 344M368 345L369 346L368 345M333 346L334 347L333 346M369 347L370 348L369 347M334 348L335 349L334 348M370 349L371 350L370 349M335 351L336 352L335 351M371 351L372 352L371 351M336 353L337 354L336 353M372 354L373 355L372 354M337 355L338 356L337 355M373 356L374 357L373 356M338 357L339 358L338 357M374 358L375 359L374 358M339 360L340 361L339 360M375 360L376 361L375 360M340 362L341 363L340 362M376 363L377 364L376 363M341 364L342 365L341 364M377 365L378 366L377 365M342 366L343 367L342 366M378 367L379 368L378 367M343 369L344 370L343 369M379 369L380 370L379 369M344 371L345 372L344 371M380 372L381 373L380 372M345 373L346 374L345 373M381 374L382 375L381 374M346 376L347 377L346 376M382 376L383 377L382 376M383 378L384 379L383 378M345 380L346 381L345 380M344 381L345 382L344 381M341 384L342 385L341 384M328 385L328 386L334 386L328 385M392 385L392 386L398 386L392 385M404.667 386.333L405.333 386.667L404.667 386.333M406 387L406 397L407 397L406 387z"/>
</svg>
